<?xml version="1.0" encoding="utf-8"?>
<!-- Generator: Adobe Illustrator 25.0.1, SVG Export Plug-In . SVG Version: 6.00 Build 0)  -->
<svg version="1.1" id="Layer_1" xmlns="http://www.w3.org/2000/svg" xmlns:xlink="http://www.w3.org/1999/xlink" x="0px" y="0px"
	 viewBox="0 0 1200 1200" style="enable-background:new 0 0 1200 1200;" xml:space="preserve">
<style type="text/css">
	.st0{fill:none;stroke:#F1F1F2;stroke-width:10;stroke-miterlimit:10;}
	.st1{fill:none;stroke:#073553;stroke-width:0.25;stroke-miterlimit:10;}
	.st2{fill:#EE4347;stroke:#FFFFFF;stroke-width:10;stroke-miterlimit:10;}
	.st3{fill:#297BF0;stroke:#FFFFFF;stroke-width:10;stroke-miterlimit:10;}
	.st4{fill:none;}
	.st5{fill:#F1F1F2;}
	.st6{font-family:'InaiMathi-Bold';}
	.st7{font-size:129.3053px;}
	.st8{letter-spacing:10;}
	.st9{fill:#231F20;}
	.st10{font-family:'MyriadPro-Regular';}
	.st11{font-size:12px;}
</style>
<path class="st0" d="M1080.73,95.97H118.33v837.55c27.54,86.62,481.2,196.38,481.2,196.38s453.66-114.44,481.2-201.06V95.97z"/>
<path class="st1" d="M451.93,738.88"/>
<path class="st1" d="M791.26,828.73"/>
<path class="st1" d="M512.18,689.19"/>
<path class="st2" d="M623.83,1049.07V635.23l141.14,53.3l-1.09,218.99l108.93-62.85l0-182.19l-248.97-99.92V278.73l392.91,0.12
	V559.2l-144.66-57.94l0.18-125.03H743.47l20.41,12.11v114.78l252.86,103.29c0,0,0,194.77,0,268.54
	C1016.75,936.93,623.83,1049.07,623.83,1049.07z"/>
<path class="st3" d="M576.27,562.52l-0.04-284.19H185.62c0,0,0,461.15,0,596.11c0,65.71,392.91,174.11,392.91,174.11l-2.15-431.62
	l-67.88-25.79L576.27,562.52z M434.6,910.81l-108.59-66.19l0.12-164.77l108.47-44.13V910.81z M434.6,501.26l-108.92,46.92V388.49
	l-20.84-12.26H434.6L434.6,501.26z"/>
<rect x="118.33" y="142.86" class="st4" width="962.41" height="239.55"/>
<text transform="matrix(1 0 0 1 175.8638 230.9189)" class="st5 st6 st7 st8">BASKETBALL</text>
<text transform="matrix(1 0 0 1 251.8711 119.355)" class="st9 st10 st11">i</text>
</svg>
